Patient4_TMGait_0pt3_02_right_21_GRF.mot
version=1
nRows=26
nColumns=19
inDegrees=no
endheader
time	F1x	F1y	F1z	M1x	M1y	M1z	F2x	F2y	F2z	M2x	M2y	M2z	EC1x	EC1y	EC1z	EC2x	EC2y	EC2z
40.14	-4.7961	776.1981	57.8891	-272.6087	-59.4604	778.4872	0.25931	28.017	-4.663	8.6158	6.0862	21.8764	-0.0592	0.0182	-0.0073	-0.0462	0.0165	0.9585
40.1599	-5.6405	791.2716	58.8044	-277.6493	-59.6019	790.2588	-0.42357	20.9233	-3.4092	6.5548	4.5709	16.5833	-0.0592	0.0182	-0.0073	-0.0462	0.0165	0.9585
40.1799	-6.3635	808.0297	59.917	-283.283	-59.8206	803.1591	-0.78019	14.4433	-2.2345	4.6434	3.1084	11.7261	-0.0592	0.0182	-0.0073	-0.0462	0.0165	0.9585
40.1998	-6.8576	824.7647	61.1112	-288.9213	-60.0252	815.6227	-0.88654	9.1918	-1.2641	3.0762	1.8678	7.7826	-0.0592	0.0182	-0.0073	-0.0462	0.0165	0.9585
40.2197	-6.9986	839.4399	62.2295	-293.8522	-60.0645	825.7556	-0.84414	5.3457	-0.53994	1.9174	0.92319	4.8954	-0.0592	0.0182	-0.0073	-0.0462	0.0165	0.9585
40.2396	-6.6499	849.9583	63.1002	-297.3377	-59.76	831.6026	-0.72839	2.7879	-0.046755	1.1389	0.26995	2.9736	-0.0592	0.0182	-0.0073	-0.0462	0.0165	0.9585
40.2596	-5.6971	854.4978	63.5724	-298.7346	-58.9499	831.4808	-0.59187	1.2487	0.25637	0.66275	-0.13606	1.8058	-0.0592	0.0182	-0.0073	-0.0462	0.0165	0.9585
40.2795	-4.0789	851.8963	63.5344	-297.6312	-57.5244	824.3565	-0.46871	0.40305	0.41722	0.38875	-0.35128	1.138	-0.0592	0.0182	-0.0073	-0.0462	0.0165	0.9585
40.2994	-1.8038	841.9474	62.9232	-293.9521	-55.441	810.1126	-0.37401	-0.071469	0.48175	0.21302	-0.43504	0.70588	-0.0592	0.0182	-0.0073	-0.0462	0.0165	0.9585
40.3194	1.0828	825.5203	61.7285	-288.0066	-52.7142	789.6441	-0.30941	-0.46468	0.49061	0.039198	-0.44282	0.26135	-0.0592	0.0182	-0.0073	-0.0462	0.0165	0.9585
40.3393	4.5145	804.4472	59.9872	-280.4456	-49.4037	764.743	-0.26672	-1.0163	0.47637	-0.21479	-0.42054	-0.40766	-0.0592	0.0182	-0.0073	-0.0462	0.0165	0.9585
40.3592	8.4018	781.2397	57.7962	-272.156	-45.6266	737.8208	-0.22965	-1.9033	0.46164	-0.6107	-0.40309	-1.4598	-0.0592	0.0182	-0.0073	-0.0462	0.0165	0.9585
40.3791	12.6411	758.7089	55.3169	-264.1223	-41.5572	711.5459	-0.17737	-3.2199	0.45707	-1.1807	-0.41034	-2.9753	-0.0592	0.0182	-0.0073	-0.0462	0.0165	0.9585
40.3991	17.1131	739.5018	52.7643	-257.2631	-37.415	688.4154	-0.087276	-4.9404	0.46228	-1.9113	-0.44921	-4.9172	-0.0592	0.0182	-0.0073	-0.0462	0.0165	0.9585
40.419	21.687	725.6433	50.3809	-252.2729	-33.4451	670.3265	0.064598	-6.8656	0.46735	-2.7212	-0.51719	-7.0739	-0.0592	0.0182	-0.0073	-0.0462	0.0165	0.9585
40.4389	26.2558	718.17	48.3926	-249.4977	-29.8714	658.2354	0.30211	-8.5635	0.45058	-3.4359	-0.59917	-8.9881	-0.0592	0.0182	-0.0073	-0.0462	0.0165	0.9585
40.4589	30.74	716.8919	46.9748	-248.8513	-26.8651	651.9634	0.6421	-9.3022	0.38045	-3.7587	-0.66599	-9.8793	-0.0592	0.0182	-0.0073	-0.0462	0.0165	0.9585
40.4788	35.0554	720.3146	46.2251	-249.7883	-24.5318	650.1645	1.0867	-7.9943	0.21364	-3.2471	-0.66774	-8.5824	-0.0592	0.0182	-0.0073	-0.0462	0.0165	0.9585
40.4987	39.0739	725.7868	46.1388	-251.3593	-22.9075	650.4889	1.6044	-3.1745	-0.10146	-1.3018	-0.53061	-3.5302	-0.0592	0.0182	-0.0073	-0.0462	0.0165	0.9585
40.5186	42.6017	729.9356	46.6022	-252.3695	-21.9627	649.9905	2.1126	6.9452	-0.61742	2.8098	-0.15776	7.19	-0.0592	0.0182	-0.0073	-0.0462	0.0165	0.9585
40.5386	45.424	729.3691	47.4071	-251.6336	-21.597	645.7406	2.4604	24.2902	-1.3785	9.8784	0.5654	25.6446	-0.0592	0.0182	-0.0073	-0.0462	0.0165	0.9585
40.5585	47.3611	721.3597	48.2584	-248.2209	-21.6249	635.4157	2.3919	50.5525	-2.4025	20.6038	1.7663	53.6596	-0.0592	0.0182	-0.0073	-0.0462	0.0165	0.9585
40.5784	48.2882	704.2301	48.8256	-241.5874	-21.813	617.6199	1.4316	86.6367	-3.6533	35.3678	3.6017	92.2285	-0.0592	0.0182	-0.0073	-0.0462	0.0165	0.9585
40.5984	48.1356	677.3793	48.8237	-231.576	-21.944	591.8875	-1.1586	131.9158	-5.0457	53.9283	6.2734	140.7202	-0.0592	0.0182	-0.0073	-0.0462	0.0165	0.9585
40.6183	46.9092	641.21	48.0646	-218.3847	-21.8522	558.5998	-5.7355	183.7606	-6.5619	75.2086	9.8947	196.3625	-0.0592	0.0182	-0.0073	-0.0462	0.0165	0.9585
40.6382	44.7245	597.1487	46.4938	-202.5674	-21.4456	518.9801	-11.7828	237.876	-8.4909	97.4144	14.5541	254.5421	-0.0592	0.0182	-0.0073	-0.0462	0.0165	0.9585
